<svg width="24" height="24" viewBox="0 0 24 24" fill="none" xmlns="http://www.w3.org/2000/svg">
<path d="M12.005 22.003C6.48201 22.003 2.005 17.526 2.005 12.003C2.005 6.48001 6.48201 2.00301 12.005 2.00301C17.528 2.00301 22.005 6.48001 22.005 12.003C22.005 17.526 17.528 22.003 12.005 22.003ZM8.505 14.003V16.003H11.005V18.003H13.005V16.003H14.005C14.668 16.003 15.3039 15.7396 15.7728 15.2708C16.2416 14.8019 16.505 14.166 16.505 13.503C16.505 12.84 16.2416 12.2041 15.7728 11.7352C15.3039 11.2664 14.668 11.003 14.005 11.003H10.005C9.8724 11.003 9.74522 10.9503 9.65145 10.8566C9.55768 10.7628 9.505 10.6356 9.505 10.503C9.505 10.3704 9.55768 10.2432 9.65145 10.1495C9.74522 10.0557 9.8724 10.003 10.005 10.003H15.505V8.00301H13.005V6.00301H11.005V8.00301H10.005C9.34196 8.00301 8.70608 8.2664 8.23724 8.73524C7.7684 9.20408 7.505 9.83996 7.505 10.503C7.505 11.166 7.7684 11.8019 8.23724 12.2708C8.70608 12.7396 9.34196 13.003 10.005 13.003H14.005C14.1376 13.003 14.2648 13.0557 14.3586 13.1495C14.4523 13.2432 14.505 13.3704 14.505 13.503C14.505 13.6356 14.4523 13.7628 14.3586 13.8566C14.2648 13.9503 14.1376 14.003 14.005 14.003H8.505Z" fill="black" fill-opacity="0.5"/>
</svg>
